<!-- Fixture: illustration-style SVG for type detection. -->
<svg viewBox="0 0 320 220" xmlns="http://www.w3.org/2000/svg">
  <title>Illustration Type Fixture</title>
  <desc>Colorful multi-shape scene with gradients and layered paths.</desc>
  <defs>
    <linearGradient id="sky" x1="0%" y1="0%" x2="0%" y2="100%">
      <stop offset="0%" stop-color="#60a5fa"/>
      <stop offset="100%" stop-color="#dbeafe"/>
    </linearGradient>
  </defs>
  <rect width="320" height="220" fill="url(#sky)"/>
  <circle cx="260" cy="44" r="18" fill="#fde68a"/>
  <path d="M0 170c42-28 73-38 110-38 42 0 77 12 110 26 35 15 62 18 100 12v50H0z" fill="#34d399"/>
  <path d="M0 190c38-12 70-14 102-6 28 7 48 18 75 18 26 0 52-11 83-16 18-3 38-2 60 4v30H0z" fill="#10b981"/>
  <g fill="#92400e">
    <rect x="126" y="110" width="36" height="54" rx="4"/>
    <rect x="180" y="122" width="30" height="42" rx="4"/>
  </g>
  <g fill="#f97316">
    <polygon points="122,114 144,92 166,114"/>
    <polygon points="176,126 195,108 214,126"/>
  </g>
  <g fill="#ffffff">
    <circle cx="134" cy="60" r="12"/>
    <circle cx="152" cy="58" r="14"/>
    <circle cx="168" cy="64" r="11"/>
    <circle cx="204" cy="72" r="10"/>
    <circle cx="219" cy="68" r="12"/>
    <circle cx="232" cy="74" r="9"/>
  </g>
  <g fill="#065f46">
    <path d="M70 156c8-24 30-36 50-36-4 17-2 36 8 54-28-4-46-7-58-18z"/>
    <path d="M236 154c7-14 22-22 36-22-2 10-1 20 6 32-19-2-32-4-42-10z"/>
    <path d="M88 182c9-8 19-11 30-10-2 8-2 14 2 22-13-3-23-6-32-12z"/>
    <path d="M210 186c6-6 13-9 22-8-1 6 0 11 4 17-10-2-18-4-26-9z"/>
  </g>
</svg>
