<!-- Fixture: horizontal path-heavy logo that should not be classified as a sprite sheet. -->
<svg viewBox="0 0 260 72" xmlns="http://www.w3.org/2000/svg">
  <title>Horizontal Logo Type Fixture</title>
  <desc>Wide horizontal logo-like SVG with grouped brand shapes and a limited palette.</desc>
  <g fill="#111827">
    <path d="M12 18h16c12 0 18 7 18 18s-6 18-18 18H12z"/>
    <path d="M60 18h18l18 36 18-36h18v36c0 10-8 18-18 18H78c-10 0-18-8-18-18z"/>
    <path d="M150 18h22l20 54h-18l-4-10h-18l-4 10h-18z"/>
    <path d="M208 18h18c18 0 28 10 28 26 0 18-12 28-30 28h-16z"/>
  </g>
  <g fill="#60a5fa">
    <circle cx="28" cy="36" r="8"/>
    <rect x="158" y="34" width="8" height="8" rx="2"/>
    <rect x="214" y="34" width="10" height="10" rx="2"/>
  </g>
</svg>
